<?xml version="1.0" encoding="UTF-8" standalone="no"?>
<!-- Created with Inkscape (http://www.inkscape.org/) -->

<svg
   xmlns:dc="http://purl.org/dc/elements/1.1/"
   xmlns:cc="http://creativecommons.org/ns#"
   xmlns:rdf="http://www.w3.org/1999/02/22-rdf-syntax-ns#"
   xmlns:svg="http://www.w3.org/2000/svg"
   xmlns="http://www.w3.org/2000/svg"
   xmlns:sodipodi="http://sodipodi.sourceforge.net/DTD/sodipodi-0.dtd"
   xmlns:inkscape="http://www.inkscape.org/namespaces/inkscape"
   width="512"
   height="512"
   viewBox="0 0 512.00001 512.00001"
   id="svg2"
   version="1.1"
   inkscape:version="0.91 r13725"
   sodipodi:docname="icon.svg">
  <defs
     id="defs4">
    <filter
       inkscape:collect="always"
       style="color-interpolation-filters:sRGB"
       id="filter4739"
       x="-0.05827643"
       width="1.1165529"
       y="-0.14295939"
       height="1.2859188">
      <feGaussianBlur
         inkscape:collect="always"
         stdDeviation="6.7303937"
         id="feGaussianBlur4741" />
    </filter>
    <filter
       inkscape:collect="always"
       style="color-interpolation-filters:sRGB"
       id="filter4755"
       x="-0.1032656"
       width="1.2065312"
       y="-0.059625814"
       height="1.1192516">
      <feGaussianBlur
         inkscape:collect="always"
         stdDeviation="2.0147317"
         id="feGaussianBlur4757" />
    </filter>
    <filter
       inkscape:collect="always"
       style="color-interpolation-filters:sRGB"
       id="filter4771"
       x="-0.082912045"
       width="1.1658241"
       y="-0.075806095"
       height="1.1516122">
      <feGaussianBlur
         inkscape:collect="always"
         stdDeviation="1.3398276"
         id="feGaussianBlur4773" />
    </filter>
    <filter
       inkscape:collect="always"
       style="color-interpolation-filters:sRGB"
       id="filter4785"
       x="-0.053694191"
       width="1.1073884"
       y="-0.077987594"
       height="1.1559752">
      <feGaussianBlur
         inkscape:collect="always"
         stdDeviation="11.454753"
         id="feGaussianBlur4787" />
    </filter>
  </defs>
  <sodipodi:namedview
     id="base"
     pagecolor="#ffffff"
     bordercolor="#666666"
     borderopacity="1.0"
     inkscape:pageopacity="0.0"
     inkscape:pageshadow="2"
     inkscape:zoom="0.98994949"
     inkscape:cx="297.86908"
     inkscape:cy="239.961"
     inkscape:document-units="px"
     inkscape:current-layer="layer1"
     showgrid="false"
     units="px"
     inkscape:window-width="2560"
     inkscape:window-height="1381"
     inkscape:window-x="1920"
     inkscape:window-y="0"
     inkscape:window-maximized="1" />
  <metadata
     id="metadata7">
    <rdf:RDF>
      <cc:Work
         rdf:about="">
        <dc:format>image/svg+xml</dc:format>
        <dc:type
           rdf:resource="http://purl.org/dc/dcmitype/StillImage" />
        <dc:title></dc:title>
      </cc:Work>
    </rdf:RDF>
  </metadata>
  <g
     inkscape:label="Layer 1"
     inkscape:groupmode="layer"
     id="layer1"
     transform="translate(0,-540.36216)">
    <g
       id="g4789"
       transform="matrix(1.3735931,0,0,1.3735931,-95.639841,-259.0548)">
      <g
         id="g4775"
         transform="matrix(-0.66816323,0,0,-0.66816323,427.26892,886.12927)"
         style="stroke:#ffffff;stroke-width:7.4832015;stroke-miterlimit:4;stroke-dasharray:none;stroke-opacity:1;filter:url(#filter4785)">
        <path
           id="path4777"
           d="M 430.489,139.595 C 431.968,115.482 425.749,93.64 412.293,76.668 396.73,57.033 372.921,45.776 346.958,45.776 c -16.272,0 -32.239,4.432 -46.593,12.746 C 273.596,21.041 235.872,0 194.101,0 152.83,0 113.131,21.105 90.532,55.073 72.285,82.49 66.947,114.469 74.877,146.879 c -62.784,27.46 -79.316,79.63 -73.443,118.665 7.526,50.048 48.138,86.379 96.512,86.379 1.847,0 187.192,0.587 299.482,0.587 73.856,0 111.193,-51.844 114.632,-100.028 3.154,-44.2 -21.405,-95.457 -81.571,-112.887 z m 39.877,109.926 c -2.173,30.453 -25.569,61.192 -72.933,61.192 -112.224,0 -297.502,-0.593 -299.426,-0.593 -31.249,0 -51.44,-25.554 -55.237,-50.792 -5.404,-35.943 18.661,-65.804 64.371,-79.867 5.639,-1.732 10.276,-5.766 12.777,-11.113 2.5,-5.333 2.633,-11.489 0.347,-16.929 -10.869,-25.976 -9.078,-51.958 5.047,-73.183 14.971,-22.475 41.326,-36.436 68.789,-36.436 33.423,0 62.579,20.231 82.071,56.964 3.088,5.812 8.736,9.835 15.242,10.848 6.485,1.008 13.104,-1.092 17.818,-5.689 10.803,-10.55 24.197,-16.352 37.72,-16.352 13.124,0 24.993,5.493 32.58,15.066 9.328,11.762 11.782,28.528 7.108,48.493 -1.347,5.712 -0.214,11.711 3.092,16.553 3.302,4.846 8.491,8.067 14.283,8.909 48.931,7.013 68.577,41.681 66.351,72.929 z"
           inkscape:connector-curvature="0"
           style="fill:#000000;stroke:#ffffff;stroke-width:7.4832015;stroke-miterlimit:4;stroke-dasharray:none;stroke-opacity:1" />
        <path
           id="path4779"
           d="m 186.641,62.781 c -43.011,3.794 -56.14,38.102 -54.472,60.234 0.725,9.604 8.741,16.908 18.207,16.908 0.474,0 0.938,-0.016 1.408,-0.051 10.067,-0.764 17.619,-9.543 16.859,-19.615 -0.327,-4.468 0.193,-19.199 21.222,-21.049 10.058,-0.888 17.497,-9.759 16.609,-19.824 -0.891,-10.051 -9.765,-17.544 -19.833,-16.603 z"
           inkscape:connector-curvature="0"
           style="fill:#000000;stroke:#ffffff;stroke-width:7.4832015;stroke-miterlimit:4;stroke-dasharray:none;stroke-opacity:1" />
      </g>
      <path
         id="path4761"
         d="m 305.76349,826.15914 -4.029,-12.00419 -8.64321,-6.54067 -11.7763,-19.30613 c 0.87446,-0.74304 0.57609,-0.87522 2.43269,-2.45277 1.85658,-1.57756 2.02587,-1.33571 2.94278,-2.11481 l 17.15177,14.73853 5.05956,9.58573 11.1963,5.91407 c -2.82239,3.94096 -6.47076,7.04102 -6.47076,7.04102 0,0 -3.51893,2.99006 -7.86383,5.13922 z m -6.17816,-16.3491 0.44797,-0.38063 c 0,0 0.26929,-3.31435 -1.25324,-5.10618 -1.52253,-1.79182 -2.03782,-0.5826 -2.79908,-1.47852 -1.1419,-1.34386 0.42595,-2.67608 0.42595,-2.67608 0,0 1.56785,-1.33221 2.70974,0.0117 0.76126,0.89591 0.24599,2.10513 1.00726,3.00105 0.76126,0.89591 3.49301,3.20301 4.38892,2.44174 l 0.44796,-0.38063 -2.91041,-5.24082 -13.43479,-11.72585 -3.13568,2.66444 4.46806,7.32221 c 0.13819,-0.32231 0.35156,-0.61815 0.63682,-0.86051 0.98953,-0.84081 2.47352,-0.72024 3.31436,0.26929 0.84081,0.98954 0.72023,2.47354 -0.26931,3.31436 -0.46764,0.39736 -1.04532,0.58009 -1.61407,0.55791 l 2.86732,4.54827 4.70222,3.71828 z m -11.01502,-18.4102 c 0.49521,-0.42079 1.23676,-0.36013 1.65717,0.13464 0.42041,0.49476 0.36057,1.23639 -0.13464,1.65718 -0.49478,0.4204 -1.23677,0.36011 -1.65719,-0.13465 -0.42041,-0.49477 -0.36011,-1.23677 0.13466,-1.65717 z m 3.17971,1.92645 c 0.49521,-0.42079 1.23676,-0.36013 1.65718,0.13465 0.42041,0.49476 0.36057,1.23639 -0.13465,1.65717 -0.49476,0.42041 -1.23677,0.36013 -1.65717,-0.13465 -0.42043,-0.49477 -0.36013,-1.23677 0.13464,-1.65717 z"
         inkscape:connector-curvature="0"
         style="fill:#ff0000;fill-opacity:0.85100002;filter:url(#filter4771)" />
      <path
         style="fill:#0000ff;fill-opacity:0.85100002;filter:url(#filter4755)"
         inkscape:connector-curvature="0"
         d="m 166.82479,823.50945 14.46638,-16.71678 2.15606,-18.80078 18.56238,-34.84688 c 1.8935,0.6546 1.82722,0.0887 5.84733,1.47853 4.0201,1.3898 3.8069,1.85905 5.79231,2.54543 l -6.92274,38.87085 -9.91583,16.11814 1.05316,22.08206 c -8.43042,-0.74272 -16.33034,-3.47382 -16.33034,-3.47382 0,0 -7.61961,-2.63419 -14.70871,-7.25675 z m 19.08896,-23.80588 0.96997,0.33534 c 0,0 5.2212,-2.53856 6.56252,-6.41845 1.34132,-3.87987 -0.93395,-3.58057 -0.26328,-5.52051 1.00598,-2.90991 4.40088,-1.73625 4.40088,-1.73625 0,0 3.3949,1.17366 2.3889,4.08356 -0.67066,1.93994 -2.94593,2.23926 -3.61659,4.1792 -0.67066,1.93994 -1.71267,8.09509 0.22727,8.76575 l 0.96997,0.33533 5.29324,-9.02904 5.69506,-30.60811 -6.78979,-2.3473 -7.03865,13.21886 c 0.60722,-0.0785 1.2414,-0.0205 1.85903,0.19307 2.14266,0.74074 3.2793,3.07851 2.53856,5.2212 -0.74075,2.14266 -3.07854,3.2793 -5.22121,2.53855 -1.01259,-0.35006 -1.80029,-1.05614 -2.27204,-1.93077 l -4.29048,8.34922 -1.41336,10.37035 z m 17.89171,-32.90692 c 1.0723,0.3707 1.63966,1.53925 1.26929,2.61058 -0.37037,1.07133 -1.53831,1.64 -2.61061,1.26929 -1.07133,-0.37038 -1.63965,-1.53928 -1.26928,-2.61061 0.37037,-1.07134 1.53927,-1.63964 2.6106,-1.26926 z m -0.072,6.49046 c 1.0723,0.3707 1.63965,1.53925 1.26927,2.61061 -0.37037,1.07133 -1.5383,1.63999 -2.6106,1.26928 -1.07133,-0.37037 -1.63966,-1.53927 -1.26928,-2.6106 0.37038,-1.07136 1.53927,-1.63967 2.61061,-1.26929 z"
         id="path4745" />
      <path
         transform="matrix(0.67490466,0,0,0.67490466,135.82907,229.00514)"
         id="path4733"
         d="M 394.59827,781.17681 323.97963,752.92938 260.4229,767.05309 126.24756,745.86751 c 0,-6.89281 -1.7655,-6.0412 -1.7655,-20.67535 0,-14.63416 1.7655,-14.46843 1.7655,-21.69581 l 134.17534,-21.18556 63.55673,14.12372 70.61864,-28.24744 c 7.0618,28.24744 7.0618,57.00509 7.0618,57.00509 0,0 0,27.73722 -7.0618,55.98465 z m -98.86608,-35.30929 0,-3.53093 c 0,0 -14.1237,-14.12372 -28.24743,-14.12372 -14.12373,0 -10.5928,7.06186 -17.65466,7.06186 -10.59278,0 -10.59278,-12.35825 -10.59278,-12.35825 0,0 0,-12.35826 10.59278,-12.35826 7.06186,0 10.5928,7.06186 17.65466,7.06186 7.06186,0 28.24743,-3.53093 28.24743,-10.59279 l 0,-3.53093 -35.30929,-7.06185 -105.92794,15.88918 0,24.7165 50.89508,8.02735 c -0.93792,-1.88618 -1.46202,-4.01356 -1.46202,-6.26188 0,-7.79982 6.32384,-14.12372 14.12372,-14.12372 7.79981,0 14.12372,6.3239 14.12372,14.12372 0,3.68607 -1.41042,7.04112 -3.72407,9.55823 l 31.97151,4.56549 35.30929,-7.06186 z M 168.61877,724.68194 c 0,-3.90344 3.1619,-7.06187 7.0618,-7.06187 3.8999,0 7.0619,3.15842 7.0619,7.06187 0,3.89991 -3.162,7.06186 -7.0619,7.06186 -3.8999,0 -7.0618,-3.16195 -7.0618,-7.06186 z m 21.1855,-7.06187 c 0,-3.90343 3.1619,-7.06186 7.06191,-7.06186 3.8999,0 7.06186,3.15842 7.06186,7.06186 0,3.89992 -3.16196,7.06187 -7.06186,7.06187 -3.9,0 -7.06191,-3.16195 -7.06191,-7.06187 z"
         inkscape:connector-curvature="0"
         style="fill:#ffff00;fill-opacity:1;filter:url(#filter4739)" />
      <g
         style="stroke:#ffffff;stroke-width:7.4832015;stroke-miterlimit:4;stroke-dasharray:none;stroke-opacity:1"
         transform="matrix(-0.66816323,0,0,-0.66816323,427.26892,886.12927)"
         id="g4685">
        <path
           style="fill:#000000;stroke:#ffffff;stroke-width:7.4832015;stroke-miterlimit:4;stroke-dasharray:none;stroke-opacity:1"
           inkscape:connector-curvature="0"
           d="M 430.489,139.595 C 431.968,115.482 425.749,93.64 412.293,76.668 396.73,57.033 372.921,45.776 346.958,45.776 c -16.272,0 -32.239,4.432 -46.593,12.746 C 273.596,21.041 235.872,0 194.101,0 152.83,0 113.131,21.105 90.532,55.073 72.285,82.49 66.947,114.469 74.877,146.879 c -62.784,27.46 -79.316,79.63 -73.443,118.665 7.526,50.048 48.138,86.379 96.512,86.379 1.847,0 187.192,0.587 299.482,0.587 73.856,0 111.193,-51.844 114.632,-100.028 3.154,-44.2 -21.405,-95.457 -81.571,-112.887 z m 39.877,109.926 c -2.173,30.453 -25.569,61.192 -72.933,61.192 -112.224,0 -297.502,-0.593 -299.426,-0.593 -31.249,0 -51.44,-25.554 -55.237,-50.792 -5.404,-35.943 18.661,-65.804 64.371,-79.867 5.639,-1.732 10.276,-5.766 12.777,-11.113 2.5,-5.333 2.633,-11.489 0.347,-16.929 -10.869,-25.976 -9.078,-51.958 5.047,-73.183 14.971,-22.475 41.326,-36.436 68.789,-36.436 33.423,0 62.579,20.231 82.071,56.964 3.088,5.812 8.736,9.835 15.242,10.848 6.485,1.008 13.104,-1.092 17.818,-5.689 10.803,-10.55 24.197,-16.352 37.72,-16.352 13.124,0 24.993,5.493 32.58,15.066 9.328,11.762 11.782,28.528 7.108,48.493 -1.347,5.712 -0.214,11.711 3.092,16.553 3.302,4.846 8.491,8.067 14.283,8.909 48.931,7.013 68.577,41.681 66.351,72.929 z"
           id="path4687" />
        <path
           style="fill:#000000;stroke:#ffffff;stroke-width:7.4832015;stroke-miterlimit:4;stroke-dasharray:none;stroke-opacity:1"
           inkscape:connector-curvature="0"
           d="m 186.641,62.781 c -43.011,3.794 -56.14,38.102 -54.472,60.234 0.725,9.604 8.741,16.908 18.207,16.908 0.474,0 0.938,-0.016 1.408,-0.051 10.067,-0.764 17.619,-9.543 16.859,-19.615 -0.327,-4.468 0.193,-19.199 21.222,-21.049 10.058,-0.888 17.497,-9.759 16.609,-19.824 -0.891,-10.051 -9.765,-17.544 -19.833,-16.603 z"
           id="path4689" />
      </g>
      <path
         style="fill:#000000;fill-opacity:0.85100002"
         inkscape:connector-curvature="0"
         d="m 401.76,756.78521 -47.93041,-19.17214 -43.13734,9.58607 -91.06771,-14.37912 c 0,-4.6783 -1.19829,-4.10029 -1.19829,-14.03281 0,-9.93251 1.19829,-9.82003 1.19829,-14.72542 l 91.06771,-14.37909 43.13734,9.58607 47.93041,-19.17215 c 4.79299,19.17215 4.79299,38.69059 4.79299,38.69059 0,0 0,18.82586 -4.79299,37.998 z m -67.10256,-23.96518 0,-2.39652 c 0,0 -9.58606,-9.58607 -19.17215,-9.58607 -9.58608,0 -7.18956,4.79303 -11.9826,4.79303 -7.18955,0 -7.18955,-8.38781 -7.18955,-8.38781 0,0 0,-8.38782 7.18955,-8.38782 4.79304,0 7.18956,4.79304 11.9826,4.79304 4.79304,0 19.17215,-2.39652 19.17215,-7.18956 l 0,-2.39652 -23.96519,-4.79303 -71.89559,10.78433 0,16.77563 34.5436,5.44834 c -0.63659,-1.28019 -0.99231,-2.72409 -0.99231,-4.25008 0,-5.29391 4.29213,-9.58607 9.58608,-9.58607 5.2939,0 9.58607,4.29216 9.58607,9.58607 0,2.50182 -0.95728,4.77896 -2.52761,6.48738 l 21.69976,3.0987 23.96519,-4.79304 z M 248.3828,718.44092 c 0,-2.64936 2.14604,-4.79305 4.793,-4.79305 2.64694,0 4.79306,2.14369 4.79306,4.79305 0,2.64695 -2.14612,4.79304 -4.79306,4.79304 -2.64696,0 -4.793,-2.14609 -4.793,-4.79304 z m 14.37906,-4.79305 c 0,-2.64934 2.14604,-4.79304 4.79307,-4.79304 2.64694,0 4.79304,2.1437 4.79304,4.79304 0,2.64696 -2.1461,4.79305 -4.79304,4.79305 -2.64702,0 -4.79307,-2.14609 -4.79307,-4.79305 z"
         id="path4701" />
      <path
         id="path4743"
         d="m 166.82479,823.50945 14.46638,-16.71678 2.15606,-18.80078 18.56238,-34.84688 c 1.8935,0.6546 1.82722,0.0887 5.84733,1.47853 4.0201,1.3898 3.8069,1.85905 5.79231,2.54543 l -6.92274,38.87085 -9.91583,16.11814 1.05316,22.08206 c -8.43042,-0.74272 -16.33034,-3.47382 -16.33034,-3.47382 0,0 -7.61961,-2.63419 -14.70871,-7.25675 z m 19.08896,-23.80588 0.96997,0.33534 c 0,0 5.2212,-2.53856 6.56252,-6.41845 1.34132,-3.87987 -0.93395,-3.58057 -0.26328,-5.52051 1.00598,-2.90991 4.40088,-1.73625 4.40088,-1.73625 0,0 3.3949,1.17366 2.3889,4.08356 -0.67066,1.93994 -2.94593,2.23926 -3.61659,4.1792 -0.67066,1.93994 -1.71267,8.09509 0.22727,8.76575 l 0.96997,0.33533 5.29324,-9.02904 5.69506,-30.60811 -6.78979,-2.3473 -7.03865,13.21886 c 0.60722,-0.0785 1.2414,-0.0205 1.85903,0.19307 2.14266,0.74074 3.2793,3.07851 2.53856,5.2212 -0.74075,2.14266 -3.07854,3.2793 -5.22121,2.53855 -1.01259,-0.35006 -1.80029,-1.05614 -2.27204,-1.93077 l -4.29048,8.34922 -1.41336,10.37035 z m 17.89171,-32.90692 c 1.0723,0.3707 1.63966,1.53925 1.26929,2.61058 -0.37037,1.07133 -1.53831,1.64 -2.61061,1.26929 -1.07133,-0.37038 -1.63965,-1.53928 -1.26928,-2.61061 0.37037,-1.07134 1.53927,-1.63964 2.6106,-1.26926 z m -0.072,6.49046 c 1.0723,0.3707 1.63965,1.53925 1.26927,2.61061 -0.37037,1.07133 -1.5383,1.63999 -2.6106,1.26928 -1.07133,-0.37037 -1.63966,-1.53927 -1.26928,-2.6106 0.37038,-1.07136 1.53927,-1.63967 2.61061,-1.26929 z"
         inkscape:connector-curvature="0"
         style="fill:#000000;fill-opacity:0.85100002" />
      <path
         style="fill:#000000;fill-opacity:0.85100002"
         inkscape:connector-curvature="0"
         d="m 305.76349,826.15914 -4.029,-12.00419 -8.64321,-6.54067 -11.7763,-19.30613 c 0.87446,-0.74304 0.57609,-0.87522 2.43269,-2.45277 1.85658,-1.57756 2.02587,-1.33571 2.94278,-2.11481 l 17.15177,14.73853 5.05956,9.58573 11.1963,5.91407 c -2.82239,3.94096 -6.47076,7.04102 -6.47076,7.04102 0,0 -3.51893,2.99006 -7.86383,5.13922 z m -6.17816,-16.3491 0.44797,-0.38063 c 0,0 0.26929,-3.31435 -1.25324,-5.10618 -1.52253,-1.79182 -2.03782,-0.5826 -2.79908,-1.47852 -1.1419,-1.34386 0.42595,-2.67608 0.42595,-2.67608 0,0 1.56785,-1.33221 2.70974,0.0117 0.76126,0.89591 0.24599,2.10513 1.00726,3.00105 0.76126,0.89591 3.49301,3.20301 4.38892,2.44174 l 0.44796,-0.38063 -2.91041,-5.24082 -13.43479,-11.72585 -3.13568,2.66444 4.46806,7.32221 c 0.13819,-0.32231 0.35156,-0.61815 0.63682,-0.86051 0.98953,-0.84081 2.47352,-0.72024 3.31436,0.26929 0.84081,0.98954 0.72023,2.47354 -0.26931,3.31436 -0.46764,0.39736 -1.04532,0.58009 -1.61407,0.55791 l 2.86732,4.54827 4.70222,3.71828 z m -11.01502,-18.4102 c 0.49521,-0.42079 1.23676,-0.36013 1.65717,0.13464 0.42041,0.49476 0.36057,1.23639 -0.13464,1.65718 -0.49478,0.4204 -1.23677,0.36011 -1.65719,-0.13465 -0.42041,-0.49477 -0.36011,-1.23677 0.13466,-1.65717 z m 3.17971,1.92645 c 0.49521,-0.42079 1.23676,-0.36013 1.65718,0.13465 0.42041,0.49476 0.36057,1.23639 -0.13465,1.65717 -0.49476,0.42041 -1.23677,0.36013 -1.65717,-0.13465 -0.42043,-0.49477 -0.36013,-1.23677 0.13464,-1.65717 z"
         id="path4759" />
    </g>
  </g>
</svg>
